<?xml version="1.0" standalone="no"?>
<!DOCTYPE svg PUBLIC "-//W3C//DTD SVG 20010904//EN"
 "http://www.w3.org/TR/2001/REC-SVG-20010904/DTD/svg10.dtd">
<svg version="1.0" xmlns="http://www.w3.org/2000/svg"
 width="950.000000pt" height="950.000000pt" viewBox="0 0 950.000000 950.000000"
 preserveAspectRatio="xMidYMid meet">
<metadata>
Created by potrace 1.11, written by Peter Selinger 2001-2013
</metadata>
<g transform="translate(0.000000,950.000000) scale(0.100000,-0.100000)"
fill="#000000" stroke="none">
<path d="M1499 8766 c-2 -2 -35 -7 -74 -11 -38 -3 -99 -13 -135 -21 -36 -9
-74 -17 -84 -20 -97 -20 -332 -123 -422 -185 -23 -16 -47 -29 -53 -29 -5 0
-14 -6 -18 -13 -4 -6 -35 -32 -68 -57 -66 -48 -231 -210 -285 -279 -19 -24
-41 -49 -48 -56 -6 -8 -12 -18 -12 -23 0 -6 -4 -12 -8 -14 -27 -10 -192 -325
-192 -364 0 -8 -5 -14 -12 -14 -6 0 -9 -2 -6 -6 3 -3 -1 -26 -9 -52 -25 -81
-39 -141 -47 -197 -4 -23 -10 -52 -14 -65 -3 -14 -8 -1175 -9 -2580 -1 -2479
-1 -2558 18 -2670 10 -63 21 -119 22 -125 2 -5 7 -23 11 -40 12 -46 36 -128
46 -150 57 -139 162 -326 229 -407 102 -127 208 -233 317 -320 67 -54 183
-129 228 -149 12 -5 28 -13 36 -19 29 -19 146 -66 220 -90 41 -13 82 -25 90
-28 27 -9 45 -12 77 -15 18 -1 33 -4 33 -7 0 -3 15 -7 33 -9 17 -1 48 -5 67
-9 51 -8 5126 -8 5184 0 26 4 66 10 88 13 22 4 51 11 65 16 14 5 42 12 62 15
20 3 45 9 56 13 11 5 49 19 85 32 92 32 208 89 303 150 123 78 315 253 416
379 28 36 56 70 61 77 6 7 10 16 10 22 0 5 4 11 8 13 12 5 124 198 127 218 0
3 3 10 7 16 6 9 47 114 55 139 46 152 70 275 78 405 2 41 4 210 4 375 0 165 0
307 0 315 0 8 0 152 0 320 -1 168 -1 312 0 320 4 157 -2 644 -9 670 -17 61
-98 119 -171 122 -19 0 -51 -6 -71 -15 -43 -18 -436 -405 -461 -454 -14 -26
-16 -131 -20 -854 -4 -901 -1 -861 -64 -1018 -60 -149 -220 -345 -344 -418
-16 -9 -29 -21 -29 -26 0 -4 -4 -6 -9 -2 -5 3 -15 -1 -23 -8 -32 -30 -185 -86
-288 -104 -59 -10 -5013 -10 -5065 0 -22 4 -58 13 -80 19 -22 7 -44 12 -50 13
-5 0 -17 5 -25 10 -8 5 -19 10 -25 11 -40 8 -179 90 -235 139 -163 143 -258
289 -313 482 l-22 78 -2 2495 c-2 2428 -1 2538 24 2630 20 72 58 169 79 202
13 21 24 40 24 43 0 28 176 220 248 270 78 55 185 113 217 119 6 1 15 4 20 8
6 3 26 9 45 14 37 8 37 8 115 23 32 6 953 9 2550 8 l2500 -3 75 -21 c74 -22
113 -22 154 -1 36 18 345 331 365 368 25 49 18 180 -10 180 -5 0 -9 6 -9 13 0
13 -71 61 -110 72 -14 4 -27 11 -30 14 -6 7 -147 53 -170 56 -8 1 -25 5 -37 9
-24 8 -53 14 -98 21 -16 3 -48 8 -70 12 -42 8 -5108 16 -5116 9z"/>
<path d="M8348 8395 c-2 -2 -19 -5 -38 -8 -38 -6 -102 -27 -110 -36 -3 -3 -18
-13 -35 -21 -16 -8 -869 -853 -1895 -1878 -1026 -1025 -1870 -1868 -1876
-1872 -6 -6 -286 266 -790 768 -597 596 -791 784 -828 802 -27 14 -52 25 -55
26 -3 0 -19 6 -35 13 -34 14 -173 18 -226 7 -53 -11 -139 -53 -184 -90 -35
-29 -617 -609 -701 -699 -125 -134 -140 -377 -32 -538 20 -31 588 -605 1309
-1324 1323 -1320 1306 -1304 1410 -1332 40 -11 195 -12 235 -2 121 31 27 -59
2136 2048 2838 2836 2757 2755 2794 2813 92 145 90 339 -5 485 -18 26 -193
209 -390 405 -321 320 -365 361 -424 388 -36 17 -76 33 -89 36 -27 6 -166 14
-171 9z"/>
</g>
</svg>
